<svg xmlns="http://www.w3.org/2000/svg" xmlns:xlink="http://www.w3.org/1999/xlink" width="108" height="108" version="1.1"><rect id="backgroundrect" width="100%" height="100%" x="0" y="0" fill="none" stroke="none"/>

<g class="currentLayer" style=""><title>Layer 1</title><g id="surface1" class="">
<path style=" stroke:none;fill-rule:nonzero;fill:rgb(94.901961%,92.156863%,85.09804%);fill-opacity:1;" d="M79.41735870100244,24.84472029182787 L23.613694880052265,24.84472029182787 L23.613694880052265,86.88198505858398 L64.05032227661434,86.88198505858398 L67.28716906324419,76.65687613310212 L79.41735870100244,73.92838532160127 zM79.41735870100244,24.84472029182787 " id="svg_1"/>
<path style=" stroke:none;fill-rule:nonzero;fill:rgb(100%,80.000001%,45.882353%);fill-opacity:1;" d="M64.05032227661434,73.92838532160127 L64.05032227661434,86.88198505858398 L79.41735870100244,73.92838532160127 zM64.05032227661434,73.92838532160127 " id="svg_2"/>
<path style=" stroke:none;fill-rule:nonzero;fill:rgb(42.745098%,65.882355%,83.92157%);fill-opacity:1;" d="M69.71214244299583,36.775135974497765 L46.45529197619745,36.775135974497765 C45.78449806975771,36.775135974497765 45.24147443121126,36.317395739673614 45.24147443121126,35.75195192018494 C45.24147443121126,35.18650810069629 45.78449806975771,34.72876786587213 46.45529197619745,34.72876786587213 L69.71214244299583,34.72876786587213 C70.38293634943555,34.72876786587213 70.925959987982,35.18650810069629 70.925959987982,35.75195192018494 C70.925959987982,36.317395739673614 70.38293634943555,36.775135974497765 69.71214244299583,36.775135974497765 zM69.71214244299583,36.775135974497765 " id="svg_3"/>
<path style=" stroke:none;fill-rule:nonzero;fill:rgb(94.901961%,28.235295%,29.411766%);fill-opacity:1;" d="M36.55309621446797,39.50138310492289 C36.244318067059204,39.50138310492289 35.93287752798826,39.40265481898043 35.69597032662982,39.202954566019756 L33.27099694687819,37.15658645739413 C32.7971825441613,36.75718537705368 32.7971825441613,36.11096386906664 33.27099694687819,35.711563363145316 C33.74481203103649,35.31216228280488 34.5114336383962,35.31216228280488 34.985248722554495,35.711563363145316 L36.55309621446797,37.03317595636126 L42.167002189668764,32.30319352984499 C42.640816592385654,31.90379244950455 43.40743819974536,31.90379244950455 43.881253283903646,32.30319352984499 C44.35506836806196,32.70259461018543 44.35506836806196,33.348816118172465 43.881253283903646,33.74821662409379 L37.41022142086471,39.202954566019756 C37.175975929727024,39.40265481898043 36.8645360720975,39.50138310492289 36.55309621446797,39.50138310492289 zM36.55309621446797,39.50138310492289 " id="svg_4"/>
<path style=" stroke:none;fill-rule:nonzero;fill:rgb(42.745098%,65.882355%,83.92157%);fill-opacity:1;" d="M69.71214244299583,46.31812219710442 L44.63988907915967,46.31812219710442 C43.97175756438211,46.31812219710442 43.42873324439423,45.860382536699376 43.42873324439423,45.29718239828645 C43.42873324439423,44.731738578797795 43.97175756438211,44.27399834397364 44.63988907915967,44.27399834397364 L69.71214244299583,44.27399834397364 C70.38293634943555,44.27399834397364 70.925959987982,44.731738578797795 70.925959987982,45.29718239828645 C70.925959987982,45.860382536699376 70.38293634943555,46.31812219710442 69.71214244299583,46.31812219710442 zM69.71214244299583,46.31812219710442 " id="svg_5"/>
<path style=" stroke:none;fill-rule:nonzero;fill:rgb(42.745098%,65.882355%,83.92157%);fill-opacity:1;" d="M33.31891113805888,42.568691586785604 L39.78994300109783,42.568691586785604 L39.78994300109783,48.023428954292456 L33.31891113805888,48.023428954292456 zM33.31891113805888,42.568691586785604 " id="svg_6"/>
<path style=" stroke:none;fill-rule:nonzero;fill:rgb(42.745098%,65.882355%,83.92157%);fill-opacity:1;" d="M69.71214244299583,55.863352675205924 L44.63988907915967,55.863352675205924 C43.97175756438211,55.863352675205924 43.42873324439423,55.405612440381766 43.42873324439423,54.8401686208931 C43.42873324439423,54.27696848248017 43.97175756438211,53.819228247656014 44.63988907915967,53.819228247656014 L69.71214244299583,53.819228247656014 C70.38293634943555,53.819228247656014 70.925959987982,54.27696848248017 70.925959987982,54.8401686208931 C70.925959987982,55.405612440381766 70.38293634943555,55.863352675205924 69.71214244299583,55.863352675205924 zM69.71214244299583,55.863352675205924 " id="svg_7"/>
<path style=" stroke:none;fill-rule:nonzero;fill:rgb(42.745098%,65.882355%,83.92157%);fill-opacity:1;" d="M33.31891113805888,52.11392149046799 L39.78994300109783,52.11392149046799 L39.78994300109783,57.56865943239396 L33.31891113805888,57.56865943239396 zM33.31891113805888,52.11392149046799 " id="svg_8"/>
<path style=" stroke:none;fill-rule:nonzero;fill:rgb(42.745098%,65.882355%,83.92157%);fill-opacity:1;" d="M69.71214244299583,65.40858315330743 L44.63988907915967,65.40858315330743 C43.97175756438211,65.40858315330743 43.42873324439423,64.95084234406416 43.42873324439423,64.38539909899461 C43.42873324439423,63.81995470508683 43.97175756438211,63.36221504468179 44.63988907915967,63.36221504468179 L69.71214244299583,63.36221504468179 C70.38293634943555,63.36221504468179 70.925959987982,63.81995470508683 70.925959987982,64.38539909899461 C70.925959987982,64.95084234406416 70.38293634943555,65.40858315330743 69.71214244299583,65.40858315330743 zM69.71214244299583,65.40858315330743 " id="svg_9"/>
<path style=" stroke:none;fill-rule:nonzero;fill:rgb(42.745098%,65.882355%,83.92157%);fill-opacity:1;" d="M33.31891113805888,61.6591519685695 L39.78994300109783,61.6591519685695 L39.78994300109783,67.11164565500061 L33.31891113805888,67.11164565500061 zM33.31891113805888,61.6591519685695 " id="svg_10"/>
<path style=" stroke:none;fill-rule:nonzero;fill:rgb(42.745098%,65.882355%,83.92157%);fill-opacity:1;" d="M59.19771448833174,74.95156937591408 L44.63988907915967,74.95156937591408 C43.97175756438211,74.95156937591408 43.42873324439423,74.49382914108993 43.42873324439423,73.92838532160127 C43.42873324439423,73.36518518318833 43.97175756438211,72.90744494836419 44.63988907915967,72.90744494836419 L59.19771448833174,72.90744494836419 C59.86850771333005,72.90744494836419 60.41153203331794,73.36518518318833 60.41153203331794,73.92838532160127 C60.41153203331794,74.49382914108993 59.86850771333005,74.95156937591408 59.19771448833174,74.95156937591408 zM59.19771448833174,74.95156937591408 " id="svg_11"/>
<path style=" stroke:none;fill-rule:nonzero;fill:rgb(42.745098%,65.882355%,83.92157%);fill-opacity:1;" d="M33.31891113805888,71.20213819117615 L39.78994300109783,71.20213819117615 L39.78994300109783,76.65687613310212 L33.31891113805888,76.65687613310212 zM33.31891113805888,71.20213819117615 " id="svg_12"/>
</g></g></svg>