<?xml version="1.0" encoding="UTF-8"?>
<svg xmlns="http://www.w3.org/2000/svg" xmlns:xlink="http://www.w3.org/1999/xlink" width="108px" height="108px" viewBox="0 0 108 108" version="1.1">
<g id="surface1">
<path style=" stroke:none;fill-rule:nonzero;fill:rgb(94.901961%,92.156863%,85.09804%);fill-opacity:1;" d="M 94.945312 0 L 13.054688 0 L 13.054688 108 L 72.394531 108 L 77.144531 90.199219 L 94.945312 85.449219 Z M 94.945312 0 "/>
<path style=" stroke:none;fill-rule:nonzero;fill:rgb(100%,80.000001%,45.882353%);fill-opacity:1;" d="M 72.394531 85.449219 L 72.394531 108 L 94.945312 85.449219 Z M 72.394531 85.449219 "/>
<path style=" stroke:none;fill-rule:nonzero;fill:rgb(42.745098%,65.882355%,83.92157%);fill-opacity:1;" d="M 80.703125 20.769531 L 46.574219 20.769531 C 45.589844 20.769531 44.792969 19.972656 44.792969 18.988281 C 44.792969 18.003906 45.589844 17.207031 46.574219 17.207031 L 80.703125 17.207031 C 81.6875 17.207031 82.484375 18.003906 82.484375 18.988281 C 82.484375 19.972656 81.6875 20.769531 80.703125 20.769531 Z M 80.703125 20.769531 "/>
<path style=" stroke:none;fill-rule:nonzero;fill:rgb(94.901961%,28.235295%,29.411766%);fill-opacity:1;" d="M 32.042969 25.515625 C 31.589844 25.515625 31.132812 25.34375 30.785156 24.996094 L 27.226562 21.433594 C 26.53125 20.738281 26.53125 19.613281 27.226562 18.917969 C 27.921875 18.222656 29.046875 18.222656 29.742188 18.917969 L 32.042969 21.21875 L 40.28125 12.984375 C 40.976562 12.289062 42.101562 12.289062 42.796875 12.984375 C 43.492188 13.679688 43.492188 14.804688 42.796875 15.5 L 33.300781 24.996094 C 32.957031 25.34375 32.5 25.515625 32.042969 25.515625 Z M 32.042969 25.515625 "/>
<path style=" stroke:none;fill-rule:nonzero;fill:rgb(42.745098%,65.882355%,83.92157%);fill-opacity:1;" d="M 80.703125 37.382812 L 43.910156 37.382812 C 42.929688 37.382812 42.132812 36.585938 42.132812 35.605469 C 42.132812 34.621094 42.929688 33.824219 43.910156 33.824219 L 80.703125 33.824219 C 81.6875 33.824219 82.484375 34.621094 82.484375 35.605469 C 82.484375 36.585938 81.6875 37.382812 80.703125 37.382812 Z M 80.703125 37.382812 "/>
<path style=" stroke:none;fill-rule:nonzero;fill:rgb(42.745098%,65.882355%,83.92157%);fill-opacity:1;" d="M 27.296875 30.855469 L 36.792969 30.855469 L 36.792969 40.351562 L 27.296875 40.351562 Z M 27.296875 30.855469 "/>
<path style=" stroke:none;fill-rule:nonzero;fill:rgb(42.745098%,65.882355%,83.92157%);fill-opacity:1;" d="M 80.703125 54 L 43.910156 54 C 42.929688 54 42.132812 53.203125 42.132812 52.21875 C 42.132812 51.238281 42.929688 50.441406 43.910156 50.441406 L 80.703125 50.441406 C 81.6875 50.441406 82.484375 51.238281 82.484375 52.21875 C 82.484375 53.203125 81.6875 54 80.703125 54 Z M 80.703125 54 "/>
<path style=" stroke:none;fill-rule:nonzero;fill:rgb(42.745098%,65.882355%,83.92157%);fill-opacity:1;" d="M 27.296875 47.472656 L 36.792969 47.472656 L 36.792969 56.96875 L 27.296875 56.96875 Z M 27.296875 47.472656 "/>
<path style=" stroke:none;fill-rule:nonzero;fill:rgb(42.745098%,65.882355%,83.92157%);fill-opacity:1;" d="M 80.703125 70.617188 L 43.910156 70.617188 C 42.929688 70.617188 42.132812 69.820312 42.132812 68.835938 C 42.132812 67.851562 42.929688 67.054688 43.910156 67.054688 L 80.703125 67.054688 C 81.6875 67.054688 82.484375 67.851562 82.484375 68.835938 C 82.484375 69.820312 81.6875 70.617188 80.703125 70.617188 Z M 80.703125 70.617188 "/>
<path style=" stroke:none;fill-rule:nonzero;fill:rgb(42.745098%,65.882355%,83.92157%);fill-opacity:1;" d="M 27.296875 64.089844 L 36.792969 64.089844 L 36.792969 73.582031 L 27.296875 73.582031 Z M 27.296875 64.089844 "/>
<path style=" stroke:none;fill-rule:nonzero;fill:rgb(42.745098%,65.882355%,83.92157%);fill-opacity:1;" d="M 65.273438 87.230469 L 43.910156 87.230469 C 42.929688 87.230469 42.132812 86.433594 42.132812 85.449219 C 42.132812 84.46875 42.929688 83.671875 43.910156 83.671875 L 65.273438 83.671875 C 66.257812 83.671875 67.054688 84.46875 67.054688 85.449219 C 67.054688 86.433594 66.257812 87.230469 65.273438 87.230469 Z M 65.273438 87.230469 "/>
<path style=" stroke:none;fill-rule:nonzero;fill:rgb(42.745098%,65.882355%,83.92157%);fill-opacity:1;" d="M 27.296875 80.703125 L 36.792969 80.703125 L 36.792969 90.199219 L 27.296875 90.199219 Z M 27.296875 80.703125 "/>
</g>
</svg>
