<svg xmlns="http://www.w3.org/2000/svg" xmlns:xlink="http://www.w3.org/1999/xlink" width="108" height="108" version="1.1"><rect id="backgroundrect" width="100%" height="100%" x="0" y="0" fill="none" stroke="none"/>

<g class="currentLayer" style=""><title>Layer 1</title><g id="surface1" class="">
<path style=" stroke:none;fill-rule:nonzero;fill:rgb(94.901961%,92.156863%,85.09804%);fill-opacity:1;" d="M73.82729692746521,32.91925485633363 L32.30934677703273,32.91925485633363 L32.30934677703273,78.18633638625107 L62.39421514497299,78.18633638625107 L64.80243056185094,70.72532337862881 L73.82729692746521,68.73441007060003 zM73.82729692746521,32.91925485633363 " id="svg_1"/>
<path style=" stroke:none;fill-rule:nonzero;fill:rgb(100%,80.000001%,45.882353%);fill-opacity:1;" d="M62.39421514497299,68.73441007060003 L62.39421514497299,78.18633638625107 L73.82729692746521,68.73441007060003 zM62.39421514497299,68.73441007060003 " id="svg_2"/>
<path style=" stroke:none;fill-rule:nonzero;fill:rgb(42.745098%,65.882355%,83.92157%);fill-opacity:1;" d="M66.60661181094763,41.62458868147389 L49.303504949815434,41.62458868147389 C48.80443399171244,41.62458868147389 48.40042416848621,41.29058677782433 48.40042416848621,40.87799619096309 C48.40042416848621,40.465405604101875 48.80443399171244,40.1314037004523 49.303504949815434,40.1314037004523 L66.60661181094763,40.1314037004523 C67.10568276905062,40.1314037004523 67.50969259227683,40.465405604101875 67.50969259227683,40.87799619096309 C67.50969259227683,41.29058677782433 67.10568276905062,41.62458868147389 66.60661181094763,41.62458868147389 zM66.60661181094763,41.62458868147389 " id="svg_3"/>
<path style=" stroke:none;fill-rule:nonzero;fill:rgb(94.901961%,28.235295%,29.411766%);fill-opacity:1;" d="M41.936266996866486,43.613864830054 C41.70653592091432,43.613864830054 41.47482402440768,43.54182520377665 41.29856496357186,43.39610879177326 L39.49438371447517,41.90292381075169 C39.14186559280353,41.61149056760527 39.14186559280353,41.13995846833531 39.49438371447517,40.848525644328554 C39.846902343139504,40.557092401182146 40.41726915240008,40.557092401182146 40.769787781064416,40.848525644328554 L41.936266996866486,41.81287417312008 L46.11301548376598,38.36152116874124 C46.465533605437614,38.070087925594834 47.035900414698176,38.070087925594834 47.38841904336251,38.36152116874124 C47.74093767202686,38.65295441188764 47.74093767202686,39.12448651115761 47.38841904336251,39.415919335164375 L42.5739685231684,43.39610879177326 C42.399689775894345,43.54182520377665 42.16797838638041,43.613864830054 41.936266996866486,43.613864830054 zM41.936266996866486,43.613864830054 " id="svg_4"/>
<path style=" stroke:none;fill-rule:nonzero;fill:rgb(42.745098%,65.882355%,83.92157%);fill-opacity:1;" d="M66.60661181094763,48.58787336208897 L47.952844404945104,48.58787336208897 C47.45575426739658,48.58787336208897 47.05174393717763,48.253871877579044 47.05174393717763,47.842918450166486 C47.05174393717763,47.430327863305266 47.45575426739658,47.096325959655694 47.952844404945104,47.096325959655694 L66.60661181094763,47.096325959655694 C67.10568276905062,47.096325959655694 67.50969259227683,47.430327863305266 67.50969259227683,47.842918450166486 C67.50969259227683,48.253871877579044 67.10568276905062,48.58787336208897 66.60661181094763,48.58787336208897 zM66.60661181094763,48.58787336208897 " id="svg_5"/>
<path style=" stroke:none;fill-rule:nonzero;fill:rgb(42.745098%,65.882355%,83.92157%);fill-opacity:1;" d="M39.53003189355031,45.85200514213771 L44.34448241374443,45.85200514213771 L44.34448241374443,49.83219417960696 L39.53003189355031,49.83219417960696 zM39.53003189355031,45.85200514213771 " id="svg_6"/>
<path style=" stroke:none;fill-rule:nonzero;fill:rgb(42.745098%,65.882355%,83.92157%);fill-opacity:1;" d="M66.60661181094763,55.552795621292354 L47.952844404945104,55.552795621292354 C47.45575426739658,55.552795621292354 47.05174393717763,55.21879371764279 47.05174393717763,54.80620313078156 C47.05174393717763,54.395249703369004 47.45575426739658,54.06124779971943 47.952844404945104,54.06124779971943 L66.60661181094763,54.06124779971943 C67.10568276905062,54.06124779971943 67.50969259227683,54.395249703369004 67.50969259227683,54.80620313078156 C67.50969259227683,55.21879371764279 67.10568276905062,55.552795621292354 66.60661181094763,55.552795621292354 zM66.60661181094763,55.552795621292354 " id="svg_7"/>
<path style=" stroke:none;fill-rule:nonzero;fill:rgb(42.745098%,65.882355%,83.92157%);fill-opacity:1;" d="M39.53003189355031,52.81692698220145 L44.34448241374443,52.81692698220145 L44.34448241374443,56.79711643881034 L39.53003189355031,56.79711643881034 zM39.53003189355031,52.81692698220145 " id="svg_8"/>
<path style=" stroke:none;fill-rule:nonzero;fill:rgb(42.745098%,65.882355%,83.92157%);fill-opacity:1;" d="M66.60661181094763,62.517717880495745 L47.952844404945104,62.517717880495745 C47.45575426739658,62.517717880495745 47.05174393717763,62.183715557706535 47.05174393717763,61.77112538998495 C47.05174393717763,61.35853438398408 47.45575426739658,61.02453289947416 47.952844404945104,61.02453289947416 L66.60661181094763,61.02453289947416 C67.10568276905062,61.02453289947416 67.50969259227683,61.35853438398408 67.50969259227683,61.77112538998495 C67.50969259227683,62.183715557706535 67.10568276905062,62.517717880495745 66.60661181094763,62.517717880495745 zM66.60661181094763,62.517717880495745 " id="svg_9"/>
<path style=" stroke:none;fill-rule:nonzero;fill:rgb(42.745098%,65.882355%,83.92157%);fill-opacity:1;" d="M39.53003189355031,59.78184924140485 L44.34448241374443,59.78184924140485 L44.34448241374443,63.760401119425424 L39.53003189355031,63.760401119425424 zM39.53003189355031,59.78184924140485 " id="svg_10"/>
<path style=" stroke:none;fill-rule:nonzero;fill:rgb(42.745098%,65.882355%,83.92157%);fill-opacity:1;" d="M58.78387284021055,69.48100256111081 L47.952844404945104,69.48100256111081 C47.45575426739658,69.48100256111081 47.05174393717763,69.14700065746126 47.05174393717763,68.73441007060003 C47.05174393717763,68.32345664318747 47.45575426739658,67.9894547395379 47.952844404945104,67.9894547395379 L58.78387284021055,67.9894547395379 C59.28294329132083,67.9894547395379 59.686953621539786,68.32345664318747 59.686953621539786,68.73441007060003 C59.686953621539786,69.14700065746126 59.28294329132083,69.48100256111081 58.78387284021055,69.48100256111081 zM58.78387284021055,69.48100256111081 " id="svg_11"/>
<path style=" stroke:none;fill-rule:nonzero;fill:rgb(42.745098%,65.882355%,83.92157%);fill-opacity:1;" d="M39.53003189355031,66.74513392201992 L44.34448241374443,66.74513392201992 L44.34448241374443,70.72532337862881 L39.53003189355031,70.72532337862881 zM39.53003189355031,66.74513392201992 " id="svg_12"/>
</g></g></svg>